<svg width="934" height="934" viewBox="0 0 934 934" fill="none" xmlns="http://www.w3.org/2000/svg">
<rect width="933.333" height="933.333" fill="#0000FF"/>
<path d="M114.188 525.749C114.188 525.749 380.783 545.513 423.979 499.812C467.175 454.11 522.715 404.711 612.817 407.179C702.919 409.646 814 407.09 814 407.09C814 407.09 737.872 72.1139 383.256 142.797C79.6341 203.319 114.188 525.749 114.188 525.749Z" fill="white"/>
<path d="M113 557.429L153.662 661.992C153.662 661.992 373.13 677.742 442.31 653.379C526.187 623.841 479.316 522.983 813.599 545.125L821 445.485C821 445.485 588.639 410.795 511.385 467.612C426.915 529.736 479.316 573.873 113 557.429Z" fill="white"/>
<path d="M173 693.183L286.501 801.727C286.501 801.727 466.645 806.663 496.232 774.589C522.215 746.422 562.891 695.329 645.516 689.852C699.539 686.271 763.954 679.618 763.954 679.618C793.912 651.081 806 580.088 806 580.088C806 580.088 592.241 548.872 519.676 627.814C435.785 719.085 344.484 690.385 173 693.183Z" fill="white"/>
</svg>
